<?xml version="1.0" encoding="UTF-8"?>
<svg version="1.1" xmlns="http://www.w3.org/2000/svg" width="60" height="60">
<path d="M0 0 C1.65 0.66 3.3 1.32 5 2 C5 8.27 5 14.54 5 21 C11.27 21 17.54 21 24 21 C24.66 22.65 25.32 24.3 26 26 C25.34 26.99 24.68 27.98 24 29 C22.02880859 29.34057617 22.02880859 29.34057617 19.6484375 29.29296875 C18.88192871 29.28547607 18.11541992 29.2779834 17.32568359 29.27026367 C16.35195801 29.24295166 15.37823242 29.21563965 14.375 29.1875 C9.734375 29.0946875 9.734375 29.0946875 5 29 C5 35.27 5 41.54 5 48 C3.35 48.66 1.7 49.32 0 50 C-0.99 49.34 -1.98 48.68 -3 48 C-3.34057617 46.02880859 -3.34057617 46.02880859 -3.29296875 43.6484375 C-3.28172974 42.49867432 -3.28172974 42.49867432 -3.27026367 41.32568359 C-3.24295166 40.35195801 -3.21563965 39.37823242 -3.1875 38.375 C-3.125625 35.28125 -3.06375 32.1875 -3 29 C-9.27 29 -15.54 29 -22 29 C-22.66 27.35 -23.32 25.7 -24 24 C-23.01 22.515 -23.01 22.515 -22 21 C-20.02880859 20.65942383 -20.02880859 20.65942383 -17.6484375 20.70703125 C-16.37226563 20.7215332 -16.37226563 20.7215332 -15.0703125 20.73632812 C-14.18085938 20.76146484 -13.29140625 20.78660156 -12.375 20.8125 C-11.02921875 20.83280273 -11.02921875 20.83280273 -9.65625 20.85351562 C-7.43690211 20.88893075 -5.21874812 20.93831539 -3 21 C-3.01571045 20.43490723 -3.0314209 19.86981445 -3.04760742 19.28759766 C-3.10987045 16.73349977 -3.14896136 14.17956129 -3.1875 11.625 C-3.21263672 10.73554688 -3.23777344 9.84609375 -3.26367188 8.9296875 C-3.27333984 8.07890625 -3.28300781 7.228125 -3.29296875 6.3515625 C-3.3086792 5.56604004 -3.32438965 4.78051758 -3.34057617 3.97119141 C-3.22818604 3.32069824 -3.1157959 2.67020508 -3 2 C-2.01 1.34 -1.02 0.68 0 0 Z " fill="#FFFFFF" transform="translate(29,5)"/>
</svg>
