<?xml version="1.0" encoding="UTF-8"?>
<svg version="1.1" xmlns="http://www.w3.org/2000/svg" width="48" height="48">
<path d="M0 0 C0.99 0 1.98 0 3 0 C3 1.32 3 2.64 3 4 C8.94 4 14.88 4 21 4 C21.33 2.68 21.66 1.36 22 0 C22.99 0 23.98 0 25 0 C25 1.32 25 2.64 25 4 C27.31 4 29.62 4 32 4 C32 17.2 32 30.4 32 44 C19.13 44 6.26 44 -7 44 C-8.57726832 40.84546335 -8.14190506 37.46259198 -8.1328125 34 C-8.13376923 33.20851562 -8.13472595 32.41703125 -8.13571167 31.6015625 C-8.13639259 29.92708253 -8.13454444 28.25259991 -8.13037109 26.578125 C-8.12502158 24.01035654 -8.13031903 21.442763 -8.13671875 18.875 C-8.13605795 17.24999961 -8.13477676 15.62499933 -8.1328125 14 C-8.13483673 13.22914062 -8.13686096 12.45828125 -8.13894653 11.6640625 C-8.11496066 6.22992132 -8.11496066 6.22992132 -7 4 C-5.02 4 -3.04 4 -1 4 C-0.67 2.68 -0.34 1.36 0 0 Z M-5 11 C-5 11.33 -5 11.66 -5 12 C6.22 12 17.44 12 29 12 C29 11.67 29 11.34 29 11 C17.78 11 6.56 11 -5 11 Z M-5 14 C-5 23.24 -5 32.48 -5 42 C0.630625 42.0309375 0.630625 42.0309375 6.375 42.0625 C7.55755371 42.071604 8.74010742 42.08070801 9.95849609 42.09008789 C11.35189209 42.09383423 11.35189209 42.09383423 12.7734375 42.09765625 C14.20308838 42.10551147 14.20308838 42.10551147 15.66162109 42.11352539 C18.02324406 42.15642599 18.02324406 42.15642599 20 41 C20 39.68 20 38.36 20 37 C19.34 37 18.68 37 18 37 C18 36.34 18 35.68 18 35 C18.93972656 34.80083984 18.93972656 34.80083984 19.8984375 34.59765625 C21.12433594 34.33275391 21.12433594 34.33275391 22.375 34.0625 C23.18710937 33.88847656 23.99921875 33.71445312 24.8359375 33.53515625 C27.029463 33.07669307 27.029463 33.07669307 29 32 C29.51052515 28.8617493 29.51052515 28.8617493 29.6875 25.1875 C29.77386719 23.94355469 29.86023437 22.69960938 29.94921875 21.41796875 C30.14838691 17.86560534 30.14838691 17.86560534 29 14 C17.78 14 6.56 14 -5 14 Z M25.4375 39.5 C24.2309375 40.7375 24.2309375 40.7375 23 42 C24.98 42 26.96 42 29 42 C29 40.35 29 38.7 29 37 C27.52263018 36.88361269 27.52263018 36.88361269 25.4375 39.5 Z " fill="#075EFB" transform="translate(12,1)"/>
<path d="M0 0 C9.9 0 19.8 0 30 0 C30 1.32 30 2.64 30 4 C20.1 4 10.2 4 0 4 C0 2.68 0 1.36 0 0 Z M2 1 C3 3 3 3 3 3 Z M7 1 C8 3 8 3 8 3 Z M12 1 C13 3 13 3 13 3 Z M17 1 C18 3 18 3 18 3 Z M27 1 C28 3 28 3 28 3 Z " fill="#0559FB" transform="translate(9,29)"/>
<path d="M0 0 C9.9 0 19.8 0 30 0 C30 1.32 30 2.64 30 4 C20.1 4 10.2 4 0 4 C0 2.68 0 1.36 0 0 Z M2 1 C3 3 3 3 3 3 Z M12 1 C13 3 13 3 13 3 Z M17 1 C18 3 18 3 18 3 Z M22 1 C23 3 23 3 23 3 Z M27 1 C28 3 28 3 28 3 Z " fill="#0559FB" transform="translate(9,24)"/>
<path d="M0 0 C8.25 0 16.5 0 25 0 C25 1.32 25 2.64 25 4 C16.75 4 8.5 4 0 4 C0 2.68 0 1.36 0 0 Z M2 1 C3 3 3 3 3 3 Z M7 1 C8 3 8 3 8 3 Z M17 1 C18 3 18 3 18 3 Z M22 1 C23 3 23 3 23 3 Z " fill="#0558FB" transform="translate(14,19)"/>
<path d="M0 0 C6.6 0 13.2 0 20 0 C20 1.32 20 2.64 20 4 C13.4 4 6.8 4 0 4 C0 2.68 0 1.36 0 0 Z M12 1 C13 3 13 3 13 3 Z M17 1 C18 3 18 3 18 3 Z " fill="#055AFB" transform="translate(9,34)"/>
<path d="M0 0 C11.55 0 23.1 0 35 0 C35 0.33 35 0.66 35 1 C23.45 1 11.9 1 0 1 C0 0.67 0 0.34 0 0 Z " fill="#075FFA" transform="translate(7,47)"/>
</svg>
