<?xml version="1.0" encoding="UTF-8"?>
<svg version="1.1" xmlns="http://www.w3.org/2000/svg" width="64" height="64">
<path d="M0 0 C5.10936238 0.89881097 7.75596281 4.20422932 11.3125 7.75 C11.97056641 8.37132812 12.62863281 8.99265625 13.30664062 9.6328125 C17.88399653 14.16712117 17.88399653 14.16712117 18.34765625 17.49609375 C16.24638076 21.4002027 13.29069876 24.24474202 10.125 27.3125 C9.48691406 27.95767578 8.84882813 28.60285156 8.19140625 29.26757812 C3.39388228 34 3.39388228 34 0 34 C0.35991718 28.95193086 3.04398041 26.47760134 6.5625 23.1875 C7.08263672 22.68541016 7.60277344 22.18332031 8.13867188 21.66601562 C9.4168857 20.43470873 10.70727147 19.2160593 12 18 C10.00184596 13.03906584 5.95628697 10.00470857 2.1171875 6.4375 C0 4 0 4 0 0 Z " fill="#ababab" transform="translate(23,15)"/>
</svg>
