<?xml version="1.0" encoding="UTF-8"?>
<svg version="1.1" xmlns="http://www.w3.org/2000/svg" width="64" height="64">
    <path d="M0 0 C-0.35991718 5.04806914 -3.04398041 7.52239866 -6.5625 10.8125 C-7.08263672 11.31458984 -7.60277344 11.81667969 -8.13867188 12.33398438 C-9.4168857 13.56529127 -10.70727147 14.7839407 -12 16 C-10.00184596 20.96093416 -5.95628697 23.99529143 -2.1171875 27.5625 C0 30 0 30 0 34 C-5.10936238 33.10118903 -7.75596281 29.79577068 -11.3125 26.25 C-11.97056641 25.62867187 -12.62863281 25.00734375 -13.30664062 24.3671875 C-17.88399653 19.83287883 -17.88399653 19.83287883 -18.34765625 16.50390625 C-16.24638076 12.5997973 -13.29069876 9.75525798 -10.125 6.6875 C-9.48691406 6.04232422 -8.84882812 5.39714844 -8.19140625 4.73242188 C-3.39388228 0 -3.39388228 0 0 0 Z " fill="#ababab" transform="translate(41,15)"/>
</svg>
